<svg xmlns="http://www.w3.org/2000/svg" viewBox="0 0 736.2 106" width="736" height="106" role="img" aria-label="vienalapa" xmlns:c2pa="http://c2pa.org/manifest"><metadata><c2pa:manifest>AAAWgmp1bWIAAAAeanVtZGMycGEAEQAQgAAAqgA4m3EDYzJwYQAAABZcanVtYgAAAEdqdW1kYzJtYQARABCAAACqADibcQN1cm46YzJwYTo5NjllZTFmYy1mYmU4LTRjNWMtOTY5OS1kMWEwODYwMTI2ZDMAAAADl2p1bWIAAAApanVtZGMyYXMAEQAQgAAAqgA4m3EDYzJwYS5hc3NlcnRpb25zAAAAALxqdW1iAAAARGp1bWRjYm9yABEAEIAAAKoAOJtxE2MycGEuaW5ncmVkaWVudC52MwAAAAAYYzJzaNIdVbehsgaFmNQQoTW88ecAAABwY2JvcqNpZGM6Zm9ybWF0bWltYWdlL3N2Zyt4bWxqaW5zdGFuY2VJRHgseG1wOmlpZDpjYTRmMzZhMC00MjdhLTQ5N2EtOThlNS1iMzM5MDE0MWM3YzRscmVsYXRpb25zaGlwaHBhcmVudE9mAAAB4mp1bWIAAABBanVtZGNib3IAEQAQgAAAqgA4m3ETYzJwYS5hY3Rpb25zLnYyAAAAABhjMnNo+gc7/snZ/sJSgU6BHFwaWQAAAZljYm9yomdhY3Rpb25zgqJmYWN0aW9ua2MycGEub3BlbmVkanBhcmFtZXRlcnOha2luZ3JlZGllbnRzgaJjdXJseC1zZWxmI2p1bWJmPWMycGEuYXNzZXJ0aW9ucy9jMnBhLmluZ3JlZGllbnQudjNkaGFzaFgg5uEbSm5dbq9lCIxHKJ/hVDHy2QxdApTFGnZ5ZSYILUikZmFjdGlvbngdY29tLmFudGhyb3BpYy5jbGF1ZGUucHJvdmlkZWRqcGFyYW1ldGVyc6F4H2NvbS5hbnRocm9waWMub3JpZ2luLWNvbmZpZGVuY2VndW5rbm93bmtkZXNjcmlwdGlvbnhmQ2xhdWRlIHByb3ZpZGVkIHRoaXMgZmlsZSBhdCB0aGUgcmVxdWVzdCBvZiBhIHVzZXIgYW5kIG1heSBoYXZlIGNyZWF0ZWQgb3IgbW9kaWZpZWQgdGhlIGZpbGUgY29udGVudHMubXNvZnR3YXJlQWdlbnShZG5hbWVmQ2xhdWRlcmFsbEFjdGlvbnNJbmNsdWRlZPUAAADIanVtYgAAAEBqdW1kY2JvcgARABCAAACqADibcRNjMnBhLmhhc2guZGF0YQAAAAAYYzJzaO0YDDb5TUBieu+xgdvc4xMAAACAY2JvcqVjYWxnZnNoYTI1NmNwYWRNAAAAAAAAAAAAAAAAAGRoYXNoWCDplfQQN4uChhvwrNNS14QkNblbBgiPq9HJCJMFMDzYv2RuYW1lbmp1bWJmIG1hbmlmZXN0amV4Y2x1c2lvbnOBomVzdGFydBi6Zmxlbmd0aBkeBAAAAj5qdW1iAAAAJ2p1bWRjMmNsABEAEIAAAKoAOJtxA2MycGEuY2xhaW0udjIAAAACD2Nib3KlY2FsZ2ZzaGEyNTZpc2lnbmF0dXJleE1zZWxmI2p1bWJmPS9jMnBhL3VybjpjMnBhOjk2OWVlMWZjLWZiZTgtNGM1Yy05Njk5LWQxYTA4NjAxMjZkMy9jMnBhLnNpZ25hdHVyZWppbnN0YW5jZUlEeCx4bXA6aWlkOmM2NDBhOGNhLTc3NjMtNDEzYi1iYzZkLTYwMDM4YTc2NTBiMXJjcmVhdGVkX2Fzc2VydGlvbnODomN1cmx4LXNlbGYjanVtYmY9YzJwYS5hc3NlcnRpb25zL2MycGEuaW5ncmVkaWVudC52M2RoYXNoWCDm4RtKbl1ur2UIjEcon+FUMfLZDF0ClMUadnllJggtSKJjdXJseCpzZWxmI2p1bWJmPWMycGEuYXNzZXJ0aW9ucy9jMnBhLmFjdGlvbnMudjJkaGFzaFggFYVMoFlw3Vj3gQwWqYrP/EB8lXM8uz2retwdAOc7l2KiY3VybHgpc2VsZiNqdW1iZj1jMnBhLmFzc2VydGlvbnMvYzJwYS5oYXNoLmRhdGFkaGFzaFggOSrujETih3tEgae32Qb+XD8m1aEqst0fFpdLUmfmM2Z0Y2xhaW1fZ2VuZXJhdG9yX2luZm+jZG5hbWVvQW50aHJvcGljIEZpbGVzZ3ZlcnNpb25lMS4wLjBrc3BlY1ZlcnNpb25lMi40LjAAABA4anVtYgAAAChqdW1kYzJjcwARABCAAACqADibcQNjMnBhLnNpZ25hdHVyZQAAABAIY2JvctKEWQISogEmGCFZAgowggIGMIIBjaADAgECAhRA5aAK7sI50L64g/oGQgU9Z1UTADAKBggqhkjOPQQDAzBJMRcwFQYDVQQKEw5BbnRocm9waWMsIFBCQzEuMCwGA1UEAxMlQW50aHJvcGljIENvbnRlbnQgQ3JlZGVudGlhbHMgUm9vdCBDQTAeFw0yNjA4MDcxODQzNTZaFw0yODA4MDYxOTQzNTZaMEQxFzAVBgNVBAoTDkFudGhyb3BpYywgUEJDMSkwJwYDVQQDEyBBbnRocm9waWMgQ2xhdWRlIENvbnRlbnQgU2lnbmluZzBZMBMGByqGSM49AgEGCCqGSM49AwEHA0IABJh6CmvLUBgFFNU0vUKlOVtE6djd17L5SuwX0LemFisBM3dkd/3cyjxFA3Qo5S46fX0/ihY0VZ7mfb9KF703t5OjWDBWMA4GA1UdDwEB/wQEAwIHgDAVBgNVHSUEDjAMBgorBgEEAYPoXgIBMAwGA1UdEwEB/wQCMAAwHwYDVR0jBBgwFoAUzlHiBIFOZFsj+OPEz5o+nMHXXMIwCgYIKoZIzj0EAwMDZwAwZAIwMXMdFJ4BetLLVY7ORuE9noqbbAZOZn/aArXyTwFAZfKrPzxF2vPoJNf1+UCdg1XGAjBwX1zd9WGqYkqmL5SFqw1QySjr1zJfpJM9+1rdDwSPLMOPOjKuiXjoU/pUUeG9RwmhY3BhZFkNngAAAAAAAAAAAAAAAAAAAAAAAAAAAAAAAAAAAAAAAAAAAAAAAAAAAAAAAAAAAAAAAAAAAAAAAAAAAAAAAAAAAAAAAAAAAAAAAAAAAAAAAAAAAAAAAAAAAAAAAAAAAAAAAAAAAAAAAAAAAAAAAAAAAAAAAAAAAAAAAAAAAAAAAAAAAAAAAAAAAAAAAAAAAAAAAAAAAAAAAAAAAAAAAAAAAAAAAAAAAAAAAAAAAAAAAAAAAAAAAAAAAAAAAAAAAAAAAAAAAAAAAAAAAAAAAAAAAAAAAAAAAAAAAAAAAAAAAAAAAAAAAAAAAAAAAAAAAAAAAAAAAAAAAAAAAAAAAAAAAAAAAAAAAAAAAAAAAAAAAAAAAAAAAAAAAAAAAAAAAAAAAAAAAAAAAAAAAAAAAAAAAAAAAAAAAAAAAAAAAAAAAAAAAAAAAAAAAAAAAAAAAAAAAAAAAAAAAAAAAAAAAAAAAAAAAAAAAAAAAAAAAAAAAAAAAAAAAAAAAAAAAAAAAAAAAAAAAAAAAAAAAAAAAAAAAAAAAAAAAAAAAAAAAAAAAAAAAAAAAAAAAAAAAAAAAAAAAAAAAAAAAAAAAAAAAAAAAAAAAAAAAAAAAAAAAAAAAAAAAAAAAAAAAAAAAAAAAAAAAAAAAAAAAAAAAAAAAAAAAAAAAAAAAAAAAAAAAAAAAAAAAAAAAAAAAAAAAAAAAAAAAAAAAAAAAAAAAAAAAAAAAAAAAAAAAAAAAAAAAAAAAAAAAAAAAAAAAAAAAAAAAAAAAAAAAAAAAAAAAAAAAAAAAAAAAAAAAAAAAAAAAAAAAAAAAAAAAAAAAAAAAAAAAAAAAAAAAAAAAAAAAAAAAAAAAAAAAAAAAAAAAAAAAAAAAAAAAAAAAAAAAAAAAAAAAAAAAAAAAAAAAAAAAAAAAAAAAAAAAAAAAAAAAAAAAAAAAAAAAAAAAAAAAAAAAAAAAAAAAAAAAAAAAAAAAAAAAAAAAAAAAAAAAAAAAAAAAAAAAAAAAAAAAAAAAAAAAAAAAAAAAAAAAAAAAAAAAAAAAAAAAAAAAAAAAAAAAAAAAAAAAAAAAAAAAAAAAAAAAAAAAAAAAAAAAAAAAAAAAAAAAAAAAAAAAAAAAAAAAAAAAAAAAAAAAAAAAAAAAAAAAAAAAAAAAAAAAAAAAAAAAAAAAAAAAAAAAAAAAAAAAAAAAAAAAAAAAAAAAAAAAAAAAAAAAAAAAAAAAAAAAAAAAAAAAAAAAAAAAAAAAAAAAAAAAAAAAAAAAAAAAAAAAAAAAAAAAAAAAAAAAAAAAAAAAAAAAAAAAAAAAAAAAAAAAAAAAAAAAAAAAAAAAAAAAAAAAAAAAAAAAAAAAAAAAAAAAAAAAAAAAAAAAAAAAAAAAAAAAAAAAAAAAAAAAAAAAAAAAAAAAAAAAAAAAAAAAAAAAAAAAAAAAAAAAAAAAAAAAAAAAAAAAAAAAAAAAAAAAAAAAAAAAAAAAAAAAAAAAAAAAAAAAAAAAAAAAAAAAAAAAAAAAAAAAAAAAAAAAAAAAAAAAAAAAAAAAAAAAAAAAAAAAAAAAAAAAAAAAAAAAAAAAAAAAAAAAAAAAAAAAAAAAAAAAAAAAAAAAAAAAAAAAAAAAAAAAAAAAAAAAAAAAAAAAAAAAAAAAAAAAAAAAAAAAAAAAAAAAAAAAAAAAAAAAAAAAAAAAAAAAAAAAAAAAAAAAAAAAAAAAAAAAAAAAAAAAAAAAAAAAAAAAAAAAAAAAAAAAAAAAAAAAAAAAAAAAAAAAAAAAAAAAAAAAAAAAAAAAAAAAAAAAAAAAAAAAAAAAAAAAAAAAAAAAAAAAAAAAAAAAAAAAAAAAAAAAAAAAAAAAAAAAAAAAAAAAAAAAAAAAAAAAAAAAAAAAAAAAAAAAAAAAAAAAAAAAAAAAAAAAAAAAAAAAAAAAAAAAAAAAAAAAAAAAAAAAAAAAAAAAAAAAAAAAAAAAAAAAAAAAAAAAAAAAAAAAAAAAAAAAAAAAAAAAAAAAAAAAAAAAAAAAAAAAAAAAAAAAAAAAAAAAAAAAAAAAAAAAAAAAAAAAAAAAAAAAAAAAAAAAAAAAAAAAAAAAAAAAAAAAAAAAAAAAAAAAAAAAAAAAAAAAAAAAAAAAAAAAAAAAAAAAAAAAAAAAAAAAAAAAAAAAAAAAAAAAAAAAAAAAAAAAAAAAAAAAAAAAAAAAAAAAAAAAAAAAAAAAAAAAAAAAAAAAAAAAAAAAAAAAAAAAAAAAAAAAAAAAAAAAAAAAAAAAAAAAAAAAAAAAAAAAAAAAAAAAAAAAAAAAAAAAAAAAAAAAAAAAAAAAAAAAAAAAAAAAAAAAAAAAAAAAAAAAAAAAAAAAAAAAAAAAAAAAAAAAAAAAAAAAAAAAAAAAAAAAAAAAAAAAAAAAAAAAAAAAAAAAAAAAAAAAAAAAAAAAAAAAAAAAAAAAAAAAAAAAAAAAAAAAAAAAAAAAAAAAAAAAAAAAAAAAAAAAAAAAAAAAAAAAAAAAAAAAAAAAAAAAAAAAAAAAAAAAAAAAAAAAAAAAAAAAAAAAAAAAAAAAAAAAAAAAAAAAAAAAAAAAAAAAAAAAAAAAAAAAAAAAAAAAAAAAAAAAAAAAAAAAAAAAAAAAAAAAAAAAAAAAAAAAAAAAAAAAAAAAAAAAAAAAAAAAAAAAAAAAAAAAAAAAAAAAAAAAAAAAAAAAAAAAAAAAAAAAAAAAAAAAAAAAAAAAAAAAAAAAAAAAAAAAAAAAAAAAAAAAAAAAAAAAAAAAAAAAAAAAAAAAAAAAAAAAAAAAAAAAAAAAAAAAAAAAAAAAAAAAAAAAAAAAAAAAAAAAAAAAAAAAAAAAAAAAAAAAAAAAAAAAAAAAAAAAAAAAAAAAAAAAAAAAAAAAAAAAAAAAAAAAAAAAAAAAAAAAAAAAAAAAAAAAAAAAAAAAAAAAAAAAAAAAAAAAAAAAAAAAAAAAAAAAAAAAAAAAAAAAAAAAAAAAAAAAAAAAAAAAAAAAAAAAAAAAAAAAAAAAAAAAAAAAAAAAAAAAAAAAAAAAAAAAAAAAAAAAAAAAAAAAAAAAAAAAAAAAAAAAAAAAAAAAAAAAAAAAAAAAAAAAAAAAAAAAAAAAAAAAAAAAAAAAAAAAAAAAAAAAAAAAAAAAAAAAAAAAAAAAAAAAAAAAAAAAAAAAAAAAAAAAAAAAAAAAAAAAAAAAAAAAAAAAAAAAAAAAAAAAAAAAAAAAAAAAAAAAAAAAAAAAAAAAAAAAAAAAAAAAAAAAAAAAAAAAAAAAAAAAAAAAAAAAAAAAAAAAAAAAAAAAAAAAAAAAAAAAAAAAAAAAAAAAAAAAAAAAAAAAAAAAAAAAAAAAAAAAAAAAAAAAAAAAAAAAAAAAAAAAAAAAAAAAAAAAAAAAAAAAAAAAAAAAAAAAAAAAAAAAAAAAAAAAAAAAAAAAAAAAAAAAAAAAAAAAAAAAAAAAAAAAAAAAAAAAAAAAAAAAAAAAAAAAAAAAAAAAAAAAAAAAAAAAAAAAAAAAAAAAAAAAAAAAAAAAAAAAAAAAAAAAAAAAAAAAAAAAAAAAAAAAAAAAAAAAAAAAAAAAAAAAAAAAAAAAAAAAAAAAAAAAAAAAAAAAAAAAAAAAAAAAAAAAAAAAAAAAAAAAAAAAAAAAAAAAAAAAAAAAAAAAAAAAAAAAAAAAAAAAAAAAAAAAAAAAAAAAAAAAAAAAAAAAAAAAAAAAAAAAAAAAAAAAAAAAAAAAAAAAAAAAAAAAAAAAAAAAAAAAAAAAAAAAAAAAAAAAAAAAAAAAAAAAAAAAAAAAAAAAAAAAAAAAAAAAAAAAAAAAAAAAAAAAAAAAAAAAAAAAAAAAAAAAAAAAAAAAAAAAAAAAAAAAAAAAAAAAAAAAAAAAAAAAAAAAAAAAAAAAAAAAAAAAAAAAAAAAAAAAAAAAAAAAAAAAAAAAAAAAAAAAAAAAAAAAAAAAAAAAAAAAAAAAAAAAAAAAAAAAAAAAAAAAAAAAAAAAAAAAAAAAAAAAAAAAAAAAAAAAAAAAAAAAAAAAAAAAAAAAAAAAAAAAAAAAAAAAAAAAAAAAAAAAAAAAAAAAAAAAAAAAAAAAAAAAAAAAAAAAAAAAAAAAAAAAAAAAAAAAAAAAAAAAAAAAAAAAAAAAAAAAAAAAAAAAAAAAAAAAAAAAAAAAAAAAAAAAAAAAAAAAAAAAAAAAAAAAAAAAAAAAAAAAAAAAAAAAAAAAAAAAAAAAAAAAAAAAAAAAAAAAAAAAAAAAAAAAAAAAAAAAAAAAAAAAAAAAAAAAAAAAAAAAAAAAAAAAAAAAAAAAAAAAAAAAAAAAAAAAAAAAAAAAAAAAAAAAAAAAAAAAAAAAAAAAAAAAAAAAAAAAAAAAAAAAAAAAAAAAAAAAAAAAAAAAAAAAAAAAAAAAAAAAAAAAAAAAAAAAAAAAAAAAAAAAAAAAAAAAAAAAAAAAAAAAAAAAAAAAAAAAAAAAAAAAAAAAAAAAAAAAAAAAAAAAAAAAAAAAAAAAAAAAAAAAAAAAAAAAAAAAAAAAAAAAAAAAAAAAAAAAAAAAAAAAAAAAAAAAAAAAAAAAAAAAAAAAAAAAAAAAAAAAAAAAAAAAAAAAAAAAAAAAAAAAAAAAAAAAAAAAAAAAAAAAAAAAAAAAAAAAAAAAAAAAAAAAAAAAAAAAAAAAAAAAPZYQEI9ylaHK8JPc6dkxjtBWk97XSOgmH7iB8wCBq/uBlo5dRXQDXvDif2nh+qXb9JqVpRo5Z81MprvoJ6b+z0n6zc=</c2pa:manifest></metadata>
<title>vienalapa</title>
<path d="M40.00,0.10 L52.80,7.46 L80.00,57.70 L80.00,69.10 L40.00,92.10 L0.00,69.10 L0.00,23.10 Z" fill="#16212E"/>
<path d="M52.80,7.46 L80.00,23.10 L80.00,57.70 Z" fill="#D9A227"/>
<g transform="translate(118.0, 84.0) scale(0.1)">
<path d="M435 -110 358 -111 545 -573H788L524 0H263L-1 -573H252ZM822 -584 937 -560 1051 -584V0H822ZM937 -622Q879 -622 843.0 -651.0Q807 -680 807 -729Q807 -779 843.0 -808.0Q879 -837 937 -837Q997 -837 1032.5 -808.0Q1068 -779 1068 -729Q1068 -680 1032.5 -651.0Q997 -622 937 -622ZM1481 17Q1375 17 1292.0 -21.0Q1209 -59 1161.0 -128.0Q1113 -197 1113 -289Q1113 -379 1159.5 -447.0Q1206 -515 1286.5 -552.5Q1367 -590 1467 -590Q1572 -590 1646.0 -545.5Q1720 -501 1759.5 -418.5Q1799 -336 1799 -224H1300V-355H1667L1600 -310Q1596 -349 1580.0 -376.5Q1564 -404 1537.5 -418.0Q1511 -432 1475 -432Q1434 -432 1405.0 -416.0Q1376 -400 1360.5 -371.5Q1345 -343 1345 -307Q1345 -256 1367.5 -221.0Q1390 -186 1436.0 -167.5Q1482 -149 1550 -149Q1612 -149 1673.0 -164.0Q1734 -179 1784 -208V-66Q1723 -26 1647.5 -4.5Q1572 17 1481 17ZM1835 -573H2064L2103 -336V0H1874V-371ZM2307 -590Q2391 -590 2449.0 -557.0Q2507 -524 2538.5 -463.5Q2570 -403 2570 -322V0H2340V-289Q2340 -345 2310.5 -375.0Q2281 -405 2227 -405Q2189 -405 2161.0 -389.0Q2133 -373 2118.0 -344.0Q2103 -315 2103 -274L2034 -310Q2047 -403 2086.5 -465.0Q2126 -527 2183.0 -558.5Q2240 -590 2307 -590ZM3160 0 3133 -204 3161 -286 3133 -367 3160 -573H3398L3360 -287L3398 0ZM3211 -286Q3199 -195 3158.5 -126.5Q3118 -58 3054.5 -20.5Q2991 17 2909 17Q2826 17 2762.0 -21.0Q2698 -59 2662.5 -127.5Q2627 -196 2627 -286Q2627 -378 2662.5 -446.5Q2698 -515 2762.0 -552.5Q2826 -590 2909 -590Q2991 -590 3054.5 -553.0Q3118 -516 3159.0 -447.5Q3200 -379 3211 -286ZM2858 -286Q2858 -248 2873.5 -219.0Q2889 -190 2917.0 -173.0Q2945 -156 2981 -156Q3018 -156 3052.0 -173.0Q3086 -190 3112.0 -219.0Q3138 -248 3150 -286Q3138 -324 3112.0 -353.5Q3086 -383 3052.0 -400.0Q3018 -417 2981 -417Q2945 -417 2917.0 -400.0Q2889 -383 2873.5 -353.5Q2858 -324 2858 -286ZM3470 -770H3699V0H3470ZM4297 0 4270 -204 4298 -286 4270 -367 4297 -573H4535L4497 -287L4535 0ZM4348 -286Q4336 -195 4295.5 -126.5Q4255 -58 4191.5 -20.5Q4128 17 4046 17Q3963 17 3899.0 -21.0Q3835 -59 3799.5 -127.5Q3764 -196 3764 -286Q3764 -378 3799.5 -446.5Q3835 -515 3899.0 -552.5Q3963 -590 4046 -590Q4128 -590 4191.5 -553.0Q4255 -516 4296.0 -447.5Q4337 -379 4348 -286ZM3995 -286Q3995 -248 4010.5 -219.0Q4026 -190 4054.0 -173.0Q4082 -156 4118 -156Q4155 -156 4189.0 -173.0Q4223 -190 4249.0 -219.0Q4275 -248 4287 -286Q4275 -324 4249.0 -353.5Q4223 -383 4189.0 -400.0Q4155 -417 4118 -417Q4082 -417 4054.0 -400.0Q4026 -383 4010.5 -353.5Q3995 -324 3995 -286ZM4607 -573H4836V-420L4827 -394V-219L4836 -168V165H4607ZM4766 -286Q4778 -379 4818.5 -447.5Q4859 -516 4923.0 -553.0Q4987 -590 5068 -590Q5152 -590 5215.5 -552.5Q5279 -515 5314.5 -446.5Q5350 -378 5350 -286Q5350 -196 5314.5 -127.5Q5279 -59 5215.5 -21.0Q5152 17 5068 17Q4986 17 4922.5 -20.5Q4859 -58 4819.0 -126.5Q4779 -195 4766 -286ZM5119 -286Q5119 -324 5103.5 -353.5Q5088 -383 5060.0 -400.0Q5032 -417 4996 -417Q4959 -417 4925.0 -400.0Q4891 -383 4865.5 -353.5Q4840 -324 4828 -286Q4840 -248 4865.5 -219.0Q4891 -190 4925.0 -173.0Q4959 -156 4996 -156Q5032 -156 5060.0 -173.0Q5088 -190 5103.5 -219.0Q5119 -248 5119 -286ZM5924 0 5897 -204 5925 -286 5897 -367 5924 -573H6162L6124 -287L6162 0ZM5975 -286Q5963 -195 5922.5 -126.5Q5882 -58 5818.5 -20.5Q5755 17 5673 17Q5590 17 5526.0 -21.0Q5462 -59 5426.5 -127.5Q5391 -196 5391 -286Q5391 -378 5426.5 -446.5Q5462 -515 5526.0 -552.5Q5590 -590 5673 -590Q5755 -590 5818.5 -553.0Q5882 -516 5923.0 -447.5Q5964 -379 5975 -286ZM5622 -286Q5622 -248 5637.5 -219.0Q5653 -190 5681.0 -173.0Q5709 -156 5745 -156Q5782 -156 5816.0 -173.0Q5850 -190 5876.0 -219.0Q5902 -248 5914 -286Q5902 -324 5876.0 -353.5Q5850 -383 5816.0 -400.0Q5782 -417 5745 -417Q5709 -417 5681.0 -400.0Q5653 -383 5637.5 -353.5Q5622 -324 5622 -286Z" fill="#16212E"/>
</g>
</svg>
